<?xml version="1.0" standalone="no"?>
<!DOCTYPE svg PUBLIC "-//W3C//DTD SVG 20010904//EN"
 "http://www.w3.org/TR/2001/REC-SVG-20010904/DTD/svg10.dtd">
<svg version="1.0" xmlns="http://www.w3.org/2000/svg"
 width="256.000000pt" height="256.000000pt" viewBox="0 0 256.000000 256.000000"
 preserveAspectRatio="xMidYMid meet">
<metadata>
Created by potrace 1.11, written by Peter Selinger 2001-2013
</metadata>
<g transform="translate(0.000000,256.000000) scale(0.100000,-0.100000)"
fill="#000000" stroke="none">
<path d="M1109 2549 c-247 -35 -497 -150 -675 -311 -83 -75 -85 -77 -135 -138
-147 -178 -244 -387 -283 -615 -20 -116 -14 -345 12 -465 110 -511 498 -894
1007 -996 90 -18 337 -27 405 -14 25 4 61 11 80 14 70 12 93 17 112 27 10 5
18 8 18 5 0 -7 142 50 209 84 344 173 590 496 673 880 26 121 32 350 12 465
-57 322 -227 607 -480 806 -66 51 -69 53 -100 72 -128 78 -298 145 -442 174
-86 17 -327 24 -413 12z m54 -360 c38 -17 60 -64 54 -113 -9 -62 -63 -104
-127 -98 -3 0 -12 3 -22 7 -11 5 -20 -2 -30 -22 -7 -15 -27 -35 -44 -43 -25
-12 -30 -19 -24 -35 8 -24 -4 -73 -24 -93 -11 -12 -10 -17 10 -39 13 -14 24
-40 26 -60 2 -27 8 -37 22 -39 31 -4 70 -39 81 -70 5 -16 10 -30 11 -32 1 -1
11 -4 23 -7 11 -2 25 -7 31 -10 5 -3 17 9 26 27 31 61 53 73 127 69 26 -1 37
2 37 12 0 45 80 93 128 76 18 -7 22 -5 22 12 0 11 7 33 15 50 14 27 14 31 -5
57 -11 15 -21 39 -22 53 -2 19 -7 25 -23 24 -60 -5 -115 48 -115 112 0 126
169 151 218 33 11 -26 23 -40 35 -40 74 0 135 -117 93 -175 -12 -17 -12 -22 5
-43 31 -40 34 -86 9 -127 -24 -40 -57 -57 -107 -57 -22 0 -33 -5 -33 -14 0
-57 -68 -110 -130 -101 -33 4 -38 2 -46 -21 -7 -19 -5 -35 6 -58 14 -28 18
-31 52 -26 54 7 94 -13 115 -58 16 -34 22 -38 50 -35 63 6 130 -64 121 -127
-4 -23 2 -36 29 -63 28 -28 33 -40 33 -80 0 -41 -5 -52 -37 -83 -23 -23 -38
-47 -39 -64 -1 -16 -2 -35 -3 -44 0 -8 -14 -28 -29 -44 l-29 -28 24 -13 c43
-23 65 -65 61 -114 -2 -35 0 -45 14 -48 24 -7 58 -66 58 -102 0 -42 -20 -76
-58 -101 -27 -19 -37 -21 -71 -12 -69 18 -113 89 -86 141 12 23 10 25 -22 41
-21 10 -38 27 -44 45 -9 26 -14 28 -37 22 -52 -15 -114 10 -137 56 -9 16 -15
18 -35 11 -14 -5 -36 -7 -50 -4 -23 4 -25 1 -24 -22 3 -69 -43 -120 -108 -118
-33 1 -35 -1 -25 -19 13 -24 11 -78 -3 -105 -23 -43 -101 -63 -154 -39 -93 43
-53 209 50 209 31 0 34 2 24 19 -22 42 8 123 50 136 19 6 17 9 -20 33 -24 16
-45 40 -52 59 -9 25 -18 33 -35 33 -72 0 -128 57 -126 128 1 28 -3 42 -11 42
-27 0 -59 49 -63 97 -5 58 11 92 52 113 26 13 30 21 31 57 1 50 25 90 64 107
l29 12 -27 18 c-30 20 -52 58 -52 91 0 15 -9 24 -32 30 -64 19 -99 114 -62
171 15 23 15 26 0 43 -42 46 -24 147 31 171 24 11 28 18 25 41 -6 38 25 97 60
115 17 9 48 14 70 12 33 -2 43 1 50 18 21 45 97 68 151 43z"/>
<path d="M1082 2108 c-15 -15 3 -48 28 -48 19 0 36 32 25 50 -8 14 -38 13 -53
-2z"/>
<path d="M1425 2049 c-4 -5 -4 -21 -1 -35 6 -20 11 -24 29 -18 39 12 47 38 18
54 -25 13 -38 13 -46 -1z"/>
<path d="M923 2043 c-18 -7 -16 -40 3 -47 33 -13 44 -6 44 24 0 30 -14 37 -47
23z"/>
<path d="M1567 1933 c-4 -3 -7 -17 -7 -29 0 -23 31 -41 50 -29 17 10 11 44 -9
55 -23 12 -26 12 -34 3z"/>
<path d="M840 1885 c-19 -23 -8 -50 20 -50 18 0 26 6 28 22 4 29 -30 49 -48
28z"/>
<path d="M1587 1758 c-22 -12 -22 -47 -1 -55 20 -7 48 8 52 28 4 20 -31 39
-51 27z"/>
<path d="M840 1693 c0 -10 5 -25 10 -33 13 -20 44 -2 48 29 3 18 -2 21 -27 21
-23 0 -31 -5 -31 -17z"/>
<path d="M1415 1620 c-8 -27 1 -40 30 -40 24 0 42 30 30 50 -11 18 -53 11 -60
-10z"/>
<path d="M973 1569 c-25 -9 -30 -28 -11 -47 17 -17 36 -15 47 7 15 27 -7 52
-36 40z"/>
<path d="M1257 1542 c-14 -15 -15 -21 -4 -36 7 -10 22 -17 33 -14 23 4 32 47
12 59 -19 12 -23 11 -41 -9z"/>
<path d="M1096 1455 c-22 -16 -13 -55 13 -55 20 0 41 19 41 37 0 21 -33 33
-54 18z"/>
<path d="M1277 1394 c-12 -13 -8 -52 7 -57 8 -3 22 1 33 8 14 11 16 18 7 32
-12 19 -36 28 -47 17z"/>
<path d="M945 1340 c-20 -23 -14 -50 13 -50 39 0 56 42 23 59 -14 8 -23 6 -36
-9z"/>
<path d="M1160 1330 c-8 -5 -28 -10 -45 -10 -25 -1 -33 -7 -50 -43 -12 -25
-32 -48 -50 -57 -27 -14 -30 -19 -30 -67 -1 -46 2 -53 22 -58 25 -6 63 -59 63
-86 0 -12 8 -15 27 -13 42 4 91 -22 114 -60 18 -31 23 -34 45 -26 36 14 94 -9
119 -46 18 -27 24 -30 45 -22 14 5 35 6 47 3 19 -4 23 -1 23 20 0 44 28 96 57
107 26 10 28 15 28 64 0 46 -3 55 -23 64 -13 5 -30 26 -38 45 -13 31 -18 35
-53 35 -43 0 -87 29 -101 66 -8 19 -13 22 -32 15 -34 -12 -90 5 -115 36 -13
15 -23 31 -23 36 0 10 -12 9 -30 -3z"/>
<path d="M1434 1305 c-10 -25 4 -45 30 -45 28 0 37 17 24 43 -11 21 -46 23
-54 2z"/>
<path d="M1590 1210 c-15 -27 14 -54 41 -39 25 13 21 39 -8 50 -17 6 -25 4
-33 -11z"/>
<path d="M863 1193 c-21 -8 -13 -73 9 -73 12 0 38 26 38 38 0 15 -34 40 -47
35z"/>
<path d="M1673 1057 c-27 -12 -29 -29 -8 -47 21 -18 45 -5 45 24 0 31 -9 36
-37 23z"/>
<path d="M943 1019 c-16 -6 -21 -13 -16 -26 18 -47 63 -45 63 2 0 27 -17 35
-47 24z"/>
<path d="M1090 910 c-16 -10 -9 -40 13 -54 14 -9 21 -7 32 7 7 11 11 25 9 32
-7 16 -38 25 -54 15z"/>
<path d="M1589 899 c-17 -10 -19 -29 -6 -46 12 -17 22 -16 41 2 26 26 -3 64
-35 44z"/>
<path d="M1263 833 c-18 -7 -16 -50 3 -57 25 -10 33 -7 44 13 7 15 6 23 -6 35
-16 17 -21 18 -41 9z"/>
<path d="M1155 780 c-3 -5 -1 -10 4 -10 6 0 11 5 11 10 0 6 -2 10 -4 10 -3 0
-8 -4 -11 -10z"/>
<path d="M1427 756 c-15 -37 25 -68 52 -41 12 12 13 20 5 33 -14 22 -50 27
-57 8z"/>
<path d="M1115 684 c-15 -11 -17 -18 -9 -31 15 -24 29 -26 47 -8 30 30 -4 64
-38 39z"/>
<path d="M1597 678 c-7 -20 12 -48 33 -48 24 0 33 15 25 40 -7 22 -50 28 -58
8z"/>
<path d="M1688 519 c-24 -13 -23 -41 1 -56 24 -15 44 5 39 38 -4 26 -16 32
-40 18z"/>
<path d="M985 500 c-8 -26 6 -43 31 -38 13 2 19 12 19 28 0 34 -40 41 -50 10z"/>
</g>
</svg>
